<?xml version="1.0" encoding="UTF-8" standalone="no"?><!DOCTYPE svg PUBLIC "-//W3C//DTD SVG 1.1//EN" "http://www.w3.org/Graphics/SVG/1.1/DTD/svg11.dtd"><svg width="100%" height="100%" viewBox="0 0 48 19" version="1.1" xmlns="http://www.w3.org/2000/svg" xmlns:xlink="http://www.w3.org/1999/xlink" xml:space="preserve" style="fill-rule:evenodd;clip-rule:evenodd;stroke-linejoin:round;stroke-miterlimit:1.41421;"><clipPath id="_clip1"><path d="M40.07,1.782c-1.959,0.764 -3.409,3.762 -6.552,4.161c-0.072,0.008 -0.144,0.014 -0.218,0.014c-1.76,-0.044 -3.208,-2.328 -4.298,-2.823c-0.769,-0.378 -1.56,-0.561 -2.368,-0.561c-2.854,-0.008 -5.987,2.319 -8.666,6.648c-1.291,2.05 -1.6,3.188 -2.308,4.24c-1.045,1.593 -1.813,2.622 -6.543,2.582c-0.265,0 -0.543,-0.001 -0.835,-0.006c-0.14,-0.004 -0.299,-0.006 -0.475,-0.005c-1.55,0.001 -4.436,0.095 -6.874,2.27c1.678,-0.688 3.325,-0.909 4.865,-0.908c2.309,0 4.458,0.458 6.441,0.457c2.454,-0.007 4.64,-0.674 6.663,-3.769c0.03,-0.048 0.085,-0.068 0.138,-0.055c0.052,0.013 0.091,0.059 0.095,0.112c0.001,0.004 0.121,1.586 0.21,2.639c0.027,0.327 0.029,0.605 0.053,0.815c0.024,0.212 0.072,0.337 0.147,0.393c0.049,0.04 0.128,0.069 0.266,0.069l0.032,0l1.479,-0.018c0.181,-0.007 0.327,-0.024 0.41,-0.059c0.084,-0.039 0.085,-0.047 0.091,-0.101c0.002,-0.053 -0.034,-0.165 -0.137,-0.323c-0.144,-0.21 -0.236,-0.36 -0.306,-0.745c-0.048,-0.268 -0.067,-0.58 -0.067,-0.884c0,-0.413 0.036,-0.812 0.09,-1.071l0.012,-0.034c0.002,-0.003 0.028,-0.052 0.07,-0.106c0.042,-0.048 0.09,-0.112 0.186,-0.14c0.103,-0.052 0.218,-0.058 0.337,-0.06c0.246,0 0.501,0.051 0.51,0.053c0.088,0.018 0.15,0.084 0.188,0.161c0.038,0.08 0.066,0.184 0.088,0.33l0.001,0.009c0.07,0.937 0.248,1.735 0.427,2.668c0.035,0.196 0.08,0.252 0.117,0.272c0.037,0.028 0.141,0.037 0.31,0.034l1.917,-0.019c0.2,-0.042 0.233,-0.101 0.238,-0.183c0.002,-0.08 -0.059,-0.225 -0.212,-0.393c-0.154,-0.181 -0.306,-0.533 -0.435,-0.941c-0.127,-0.41 -0.221,-0.868 -0.222,-1.239c0.004,-0.286 0.047,-0.544 0.264,-0.677c0.366,-0.197 0.755,-0.268 1.242,-0.267c0.222,0 0.466,0.016 0.739,0.036c0.168,0.023 0.246,0.148 0.334,0.295c0.085,0.152 0.166,0.355 0.251,0.593c0.167,0.473 0.341,1.08 0.527,1.648c0.11,0.329 0.165,0.604 0.216,0.792c0.051,0.175 0.104,0.251 0.167,0.292c0.064,0.042 0.173,0.062 0.353,0.062l2.302,-0.007c0.097,-0.004 0.146,-0.025 0.162,-0.039c0.014,-0.014 0.019,-0.02 0.02,-0.056c0.013,-0.143 -0.245,-0.512 -0.385,-0.675c-0.362,-0.461 -0.902,-1.833 -0.911,-2.555c0.001,-0.089 0.009,-0.17 0.031,-0.238c0.093,-0.29 0.41,-0.406 0.746,-0.498c0.342,-0.086 0.726,-0.121 0.996,-0.121c0.139,0.001 0.24,0.006 0.32,0.031c0.026,0.013 0.062,0.015 0.104,0.085c0.139,0.302 0.232,0.872 0.311,1.521c0.078,0.648 0.136,1.365 0.18,1.917c0.005,0.061 0.007,0.118 0.007,0.176c0,0.066 -0.002,0.13 -0.002,0.186c-0.001,0.108 0.012,0.19 0.032,0.222c0.019,0.027 0.032,0.049 0.147,0.053l0.03,0l2.145,-0.002c0.165,0.002 0.317,-0.007 0.405,-0.04c0.089,-0.039 0.103,-0.049 0.11,-0.145c0.001,-0.054 -0.015,-0.138 -0.06,-0.246c-0.103,-0.238 -0.278,-0.553 -0.491,-0.89c-0.414,-0.668 -0.602,-2.088 -0.605,-3.712c0,-0.545 0.022,-1.111 0.067,-1.673c0.032,-0.424 0.43,-0.949 0.937,-1.547c0.509,-0.593 1.135,-1.231 1.632,-1.781c1.19,-1.32 1.681,-2.659 2.586,-3.747c0.905,-1.091 2.234,-1.888 5.02,-2.082c1.013,-0.087 1.785,-0.474 2.056,-1.07c0.005,-0.01 0.007,-0.017 0.009,-0.024c-0.415,-0.215 -1.334,-0.636 -2.205,-0.636c-0.7,0.004 -4.654,1.335 -4.654,1.335"/></clipPath><g clip-path="url(#_clip1)"><rect x="0.933" y="0.451" width="45.995" height="17.852" style="fill:#07aa0f;"/></g><path d="M46.928,1.087c-0.002,0.007 -0.004,0.015 -0.009,0.023c-0.269,0.598 -1.043,0.984 -2.056,1.071c-2.785,0.194 -4.114,0.991 -5.021,2.081c-0.904,1.088 -1.395,2.428 -2.585,3.748c-0.497,0.55 -1.123,1.189 -1.632,1.781c-0.506,0.598 -0.905,1.122 -0.937,1.547c-0.045,0.562 -0.067,1.128 -0.067,1.673c0.003,1.624 0.19,3.044 0.605,3.712c0.213,0.336 0.389,0.651 0.491,0.89c0.045,0.108 0.061,0.192 0.06,0.245c-0.007,0.097 -0.022,0.106 -0.109,0.145c-0.088,0.034 -0.241,0.043 -0.406,0.042l-2.145,0.001l-0.03,0c-0.116,-0.004 -0.128,-0.025 -0.147,-0.052c-0.02,-0.031 -0.033,-0.114 -0.032,-0.223c0,-0.056 0.002,-0.119 0.002,-0.186c0,-0.057 -0.002,-0.115 -0.007,-0.175c-0.045,-0.553 -0.102,-1.27 -0.18,-1.917c-0.08,-0.65 -0.172,-1.221 -0.311,-1.522c-0.042,-0.07 -0.078,-0.072 -0.104,-0.085c-0.081,-0.025 -0.181,-0.03 -0.32,-0.031c-0.27,0 -0.654,0.035 -0.996,0.121c-0.336,0.092 -0.652,0.208 -0.747,0.498c-0.021,0.069 -0.029,0.15 -0.029,0.238c0.008,0.722 0.548,2.094 0.91,2.556c0.14,0.163 0.398,0.531 0.385,0.674c-0.001,0.036 -0.006,0.042 -0.02,0.056c-0.016,0.014 -0.065,0.037 -0.163,0.039l-2.301,0.008c-0.18,0 -0.289,-0.021 -0.352,-0.062c-0.064,-0.042 -0.117,-0.116 -0.168,-0.293c-0.051,-0.188 -0.106,-0.462 -0.216,-0.791c-0.186,-0.568 -0.36,-1.176 -0.528,-1.649c-0.084,-0.236 -0.165,-0.439 -0.25,-0.591c-0.088,-0.147 -0.166,-0.273 -0.335,-0.295c-0.272,-0.022 -0.516,-0.036 -0.738,-0.036c-0.488,-0.001 -0.876,0.067 -1.243,0.265c-0.216,0.134 -0.259,0.392 -0.263,0.678c0.001,0.371 0.096,0.829 0.222,1.238c0.129,0.41 0.281,0.762 0.435,0.943c0.153,0.167 0.214,0.311 0.212,0.392c-0.005,0.083 -0.038,0.141 -0.238,0.184l-1.917,0.019c-0.169,0.002 -0.273,-0.007 -0.31,-0.035c-0.038,-0.021 -0.082,-0.075 -0.117,-0.272c-0.179,-0.933 -0.357,-1.731 -0.427,-2.669l-0.001,-0.009c-0.022,-0.146 -0.049,-0.249 -0.089,-0.329c-0.037,-0.077 -0.099,-0.144 -0.187,-0.161c-0.01,-0.001 -0.264,-0.053 -0.51,-0.053c-0.119,0.002 -0.233,0.008 -0.337,0.061c-0.096,0.027 -0.144,0.091 -0.186,0.139c-0.042,0.055 -0.068,0.103 -0.07,0.106l-0.012,0.034c-0.055,0.262 -0.089,0.658 -0.09,1.071c0,0.304 0.02,0.616 0.067,0.884c0.07,0.385 0.162,0.535 0.306,0.745c0.103,0.158 0.138,0.271 0.137,0.323c-0.006,0.054 -0.008,0.061 -0.091,0.102c-0.083,0.033 -0.23,0.053 -0.41,0.058l-1.479,0.018l-0.031,0c-0.14,0 -0.218,-0.029 -0.268,-0.069c-0.074,-0.056 -0.122,-0.182 -0.145,-0.393c-0.025,-0.209 -0.027,-0.488 -0.054,-0.815c-0.089,-1.054 -0.21,-2.636 -0.21,-2.639c-0.004,-0.054 -0.043,-0.1 -0.095,-0.113c-0.053,-0.013 -0.108,0.009 -0.138,0.055c-2.023,3.096 -4.209,3.764 -6.663,3.77c-1.983,0.001 -4.132,-0.457 -6.44,-0.457c-1.543,-0.001 -3.189,0.22 -4.868,0.909l-0.014,0.013c-0.162,0.146 -0.322,0.301 -0.479,0.464c-0.022,0.022 -0.048,0.04 -0.076,0.054c1.881,-0.912 3.714,-1.187 5.437,-1.187c2.274,-0.001 4.419,0.457 6.44,0.457c2.417,0.006 4.671,-0.676 6.671,-3.578c0.041,0.532 0.12,1.534 0.183,2.274c0.035,0.424 0.024,0.769 0.091,1.041c0.034,0.134 0.094,0.258 0.202,0.344c0.109,0.087 0.253,0.125 0.426,0.125c0.011,0 0.023,-0.001 0.035,-0.001l1.481,-0.018c0.194,-0.007 0.359,-0.022 0.495,-0.074c0.135,-0.045 0.259,-0.173 0.254,-0.338c-0.002,-0.141 -0.064,-0.282 -0.179,-0.462c-0.144,-0.22 -0.196,-0.285 -0.268,-0.651c-0.044,-0.247 -0.063,-0.546 -0.063,-0.839c0,-0.387 0.055,-0.848 0.08,-1.001c0.026,-0.152 0.361,-0.155 0.361,-0.155c0.19,-0.001 0.417,0.027 0.455,0.046c0.047,0.024 0.056,0.104 0.08,0.279c0.072,0.954 0.252,1.764 0.43,2.688c0.036,0.212 0.099,0.362 0.236,0.444c0.136,0.076 0.274,0.067 0.442,0.069l1.95,-0.02c0.247,-0.013 0.461,-0.202 0.456,-0.436c-0.002,-0.187 -0.113,-0.36 -0.276,-0.562c-0.102,-0.126 -0.263,-0.46 -0.381,-0.85c-0.122,-0.39 -0.197,-0.834 -0.211,-1.162c-0.011,-0.261 -0.007,-0.388 0.132,-0.456c0.326,-0.157 0.654,-0.232 1.12,-0.233c0.211,0 0.654,0.021 0.72,0.037c0.163,0.038 0.395,0.806 0.395,0.806c0.155,0.449 0.319,1.016 0.495,1.555c0.105,0.315 0.158,0.576 0.213,0.78c0.056,0.201 0.137,0.349 0.274,0.438c0.138,0.088 0.297,0.103 0.491,0.103l2.305,-0.008c0.131,-0.004 0.235,-0.03 0.316,-0.094c0.082,-0.062 0.118,-0.165 0.116,-0.254c-0.012,-0.315 -0.298,-0.652 -0.441,-0.833c-0.298,-0.377 -0.863,-1.79 -0.855,-2.396c0,-0.071 0.008,-0.129 0.02,-0.167c0.013,-0.104 0.195,-0.25 0.566,-0.323c0.284,-0.056 1.037,-0.165 1.146,-0.102c0.109,0.063 0.198,0.8 0.27,1.403c0.077,0.641 0.134,1.354 0.179,1.908c0.005,0.05 0.006,0.102 0.006,0.153c0,0.062 -0.002,0.124 -0.002,0.186c0.001,0.118 0.003,0.236 0.066,0.351c0.065,0.115 0.206,0.182 0.367,0.178c0.011,0 0.022,0 0.035,-0.001l2.14,-0.001c0.172,0 0.341,-0.003 0.49,-0.055c0.15,-0.043 0.287,-0.19 0.279,-0.385c0,-0.102 -0.027,-0.213 -0.08,-0.343c-0.113,-0.262 -0.294,-0.584 -0.51,-0.927c-0.361,-0.562 -0.57,-1.979 -0.566,-3.577c0,-0.538 0.022,-1.098 0.066,-1.656c0.03,-0.342 0.374,-0.821 0.877,-1.397c0.5,-0.583 1.125,-1.222 1.628,-1.777c1.222,-1.361 1.722,-2.718 2.591,-3.756c0.867,-1.035 2.093,-1.792 4.844,-1.99c1.061,-0.093 1.93,-0.492 2.269,-1.217c0.001,-0.002 0.001,-0.005 0.002,-0.008c-0.01,-0.006 -0.066,-0.038 -0.143,-0.08c-0.024,-0.017 -0.051,-0.031 -0.081,-0.047" style="fill:#005837;fill-rule:nonzero;"/><path d="M46.797,0.489c0.268,0.103 0.417,0.332 0.417,0.468c0,0.137 -0.059,0.254 -0.059,0.254c0,0 -1.265,-0.759 -2.432,-0.759c-0.7,0 -4.653,1.33 -4.653,1.33c-1.959,0.764 -3.409,3.761 -6.552,4.161c-0.072,0.009 -0.144,0.014 -0.218,0.014c-1.76,-0.044 -3.208,-2.328 -4.298,-2.824c-0.77,-0.377 -1.56,-0.559 -2.368,-0.559c-2.853,-0.008 -5.987,2.318 -8.666,6.646c-1.292,2.051 -1.6,3.189 -2.309,4.24c-1.045,1.594 -1.812,2.623 -6.543,2.583c-0.264,0 -0.543,-0.002 -0.834,-0.007c-0.141,-0.003 -0.299,-0.005 -0.475,-0.004c-1.657,0.001 -4.839,0.105 -7.369,2.747c-0.05,0.051 -0.118,0.079 -0.184,0.079c-0.063,0 -0.126,-0.023 -0.175,-0.07c-0.102,-0.099 -0.106,-0.258 -0.008,-0.359c2.672,-2.79 6.041,-2.904 7.736,-2.903c0.179,0 0.341,0.002 0.484,0.004c0.288,0.006 0.564,0.008 0.825,0.008c4.727,-0.038 5.034,-0.812 6.122,-2.362c0.649,-0.949 0.984,-2.133 2.3,-4.224c2.725,-4.394 5.954,-6.878 9.096,-6.886c0.884,0 1.756,0.2 2.591,0.61c1.278,0.671 2.757,2.816 4.075,2.772c0.053,0 0.106,-0.003 0.16,-0.01c2.824,-0.313 4.197,-3.177 6.416,-4.126c0,0 4.092,-1.313 4.822,-1.313c0.73,0.001 1.839,0.39 2.099,0.49" style="fill:#c8e5c8;fill-rule:nonzero;"/></svg>